# xmcd
#
# Track frame offsets:
#	150
#	18260
#	33703
#	49260
#	66418
#	77122
#	88052
#	117704
#	139788
#	158989
#	182746
#	197205
#
# Disc length: 2904 seconds
#
# Revision: 0
# Processed by: cddbd v1.5.2PL0 Copyright (c) Steve Scherf et al.
# Submitted via: dBpowerAMP V4.0
#
DISCID=b00b560c
DTITLE=Various Artist - Vive En Sus Amigos!
DYEAR=2005
DGENRE=Blues
TTITLE0=Siempre Es Lo Mismo Nena
TTITLE1=Pappo - Adonde Esta La Libertad
TTITLE2=Llegara La Paz
TTITLE3=Dos Trenes Chocan
TTITLE4=El Hombre Suburbano
TTITLE5=Tome Demasiado
TTITLE6=Susy Cadillac
TTITLE7=Gris y Amarillo (Pappo and La Mississippi)
TTITLE8=El Tren De Las 16 (Pappos and Luciano Napolitano)
TTITLE9=Triple Seis (Pappo and A.N.I.M.A.L.)
TTITLE10=El Brujo y El Tiempo
TTITLE11=Sucio y Desprollio
EXTD=May be a bootleg album.  Purchased in Buenos Aires record store.
EXTT0=
EXTT1=
EXTT2=
EXTT3=
EXTT4=
EXTT5=
EXTT6=
EXTT7=
EXTT8=
EXTT9=
EXTT10=
EXTT11=
PLAYORDER=
